{"accessors":[{"name":"Model_1_positions","componentType":5126,"count":30503,"min":[-6.563589096069336,-0.40759000182151794,-6.133872985839844],"max":[6.6703782081604,1.5211340188980103,7.002256870269775],"type":"VEC3","bufferView":0,"byteOffset":0},{"name":"Model_1_normals","componentType":5126,"count":30503,"min":[-0.9998360276222229,-0.9974790215492249,-0.999845027923584],"max":[0.9996399879455566,0.9999939799308777,0.9996219873428345],"type":"VEC3","bufferView":0,"byteOffset":366036},{"name":"Model_1_texcoords","componentType":5126,"count":30503,"min":[0.0002479999966453761,0.0004949999856762588],"max":[0.9985160231590271,0.9990659952163696],"type":"VEC2","bufferView":1,"byteOffset":0},{"name":"Model_1_0_indices","componentType":5123,"count":149997,"min":[0],"max":[30502],"type":"SCALAR","bufferView":2,"byteOffset":0}],"asset":{"generator":"obj2gltf","version":"2.0"},"buffers":[{"name":"objfood1","byteLength":3123460,"uri":"data:application/octet-stream;base64,"}],"bufferViews":[{"name":"bufferView_0","buffer":0,"byteLength":732072,"byteOffset":0,"byteStride":12,"target":34962},{"name":"bufferView_1","buffer":0,"byteLength":244024,"byteOffset":732072,"byteStride":8,"target":34962},{"name":"bufferView_2","buffer":0,"byteLength":299996,"byteOffset":976096,"target":34963},{"buffer":0,"byteOffset":1276092,"byteLength":1847368}],"images":[{"name":"refffood1","mimeType":"image/jpeg","bufferView":3}],"materials":[{"name":"ModelSG","pbrMetallicRoughness":{"baseColorTexture":{"index":0},"baseColorFactor":[1,1,1,1],"metallicFactor":0,"roughnessFactor":0.982},"emissiveFactor":[0,0,0],"alphaMode":"OPAQUE","doubleSided":false}],"meshes":[{"name":"Model_1","primitives":[{"attributes":{"POSITION":0,"NORMAL":1,"TEXCOORD_0":2},"indices":3,"material":0,"mode":4}]}],"nodes":[{"name":"Model","mesh":0}],"samplers":[{"magFilter":9729,"minFilter":9986,"wrapS":10497,"wrapT":10497}],"scene":0,"scenes":[{"nodes":[0]}],"textures":[{"name":"refffood1","sampler":0,"source":0}]}
